HIERARCHY
ROOT Hips
{
	OFFSET 0.000000 0.000000 0.000000
	CHANNELS 6 Xposition Yposition Zposition Xrotation Yrotation Zrotation
	JOINT LeftUpLeg_virtual
	{
		OFFSET 0.000000 0.000000 0.000000
		CHANNELS 3 Xrotation Yrotation Zrotation
		JOINT LeftUpLeg
		{
			OFFSET 13.026900 -6.336304 -1.092800
			CHANNELS 3 Xrotation Yrotation Zrotation
			JOINT LeftLeg
			{
				OFFSET 0.524474 -46.096886 9.782700
				CHANNELS 3 Xrotation Yrotation Zrotation
				JOINT LeftFoot
				{
					OFFSET -0.524474 -53.427422 -12.948200
					CHANNELS 3 Xrotation Yrotation Zrotation
					JOINT LeftToeBase
					{
						OFFSET 0.192200 -14.009700 16.364100
						CHANNELS 3 Xrotation Yrotation Zrotation
						JOINT LeftToe_End
						{
							OFFSET -1.784700 -0.561700 9.474800
							CHANNELS 3 Xrotation Yrotation Zrotation
							End Site
							{
								OFFSET 0 0 0
							}
						}
					}
				}
			}
		}
	}
	JOINT RightUpLeg_virtual
	{
		OFFSET 0.000000 0.000000 0.000000
		CHANNELS 3 Xrotation Yrotation Zrotation
		JOINT RightUpLeg
		{
			OFFSET -12.883000 -6.336304 -1.092800
			CHANNELS 3 Xrotation Yrotation Zrotation
			JOINT RightLeg
			{
				OFFSET -0.524587 -46.096825 9.782800
				CHANNELS 3 Xrotation Yrotation Zrotation
				JOINT RightFoot
				{
					OFFSET 0.524587 -53.427383 -12.948300
					CHANNELS 3 Xrotation Yrotation Zrotation
					JOINT RightToeBase
					{
						OFFSET -0.192200 -14.009700 16.364100
						CHANNELS 3 Xrotation Yrotation Zrotation
						JOINT RightToe_End
						{
							OFFSET 1.784700 -0.561700 9.474800
							CHANNELS 3 Xrotation Yrotation Zrotation
							End Site
							{
								OFFSET 0 0 0
							}
						}
					}
				}
			}
		}
	}
	JOINT Spine_virtual
	{
		OFFSET 0.000000 0.000000 0.000000
		CHANNELS 3 Xrotation Yrotation Zrotation
		JOINT Spine
		{
			OFFSET 0.072000 7.257294 -0.789700
			CHANNELS 3 Xrotation Yrotation Zrotation
			JOINT Spine1
			{
				OFFSET 0.000000 12.508769 -0.658067
				CHANNELS 3 Xrotation Yrotation Zrotation
				JOINT Spine1_split
				{
					OFFSET 0.000000 12.508769 -0.658067
					CHANNELS 3 Xrotation Yrotation Zrotation
					JOINT Spine2
					{
						OFFSET 0.000000 12.508769 -0.658067
						CHANNELS 3 Xrotation Yrotation Zrotation
						JOINT Neck_virtual
						{
							OFFSET 0.000000 0.000000 0.000000
							CHANNELS 3 Xrotation Yrotation Zrotation
							JOINT Neck
							{
								OFFSET 0.000000 14.033295 7.520400
								CHANNELS 3 Xrotation Yrotation Zrotation
								JOINT Head
								{
									OFFSET 0.000000 8.198502 5.703100
									CHANNELS 3 Xrotation Yrotation Zrotation
									JOINT HeadTop_End
									{
										OFFSET 0.000000 17.760803 13.332701
										CHANNELS 3 Xrotation Yrotation Zrotation
										End Site
										{
											OFFSET 0 0 0
										}
									}
								}
							}
						}
						JOINT LeftShoulder_virtual
						{
							OFFSET 0.000000 0.000000 0.000000
							CHANNELS 3 Xrotation Yrotation Zrotation
							JOINT LeftShoulder
							{
								OFFSET 6.292450 5.785301 -0.669000
								CHANNELS 3 Xrotation Yrotation Zrotation
								JOINT LeftShoulder_split
								{
									OFFSET 6.292450 5.785301 -0.669000
									CHANNELS 3 Xrotation Yrotation Zrotation
									JOINT LeftArm
									{
										OFFSET 13.907140 -6.093903 1.965100
										CHANNELS 3 Xrotation Yrotation Zrotation
										JOINT LeftForeArm
										{
											OFFSET 34.140198 0.000000 0.000000
											CHANNELS 3 Xrotation Yrotation Zrotation
											JOINT LeftHand
											{
												OFFSET 40.960209 0.000000 0.000000
												CHANNELS 3 Xrotation Yrotation Zrotation
												End Site
												{
													OFFSET 0 0 0
												}
											}
										}
									}
								}
							}
						}
						JOINT RightShoulder_virtual
						{
							OFFSET 0.000000 0.000000 0.000000
							CHANNELS 3 Xrotation Yrotation Zrotation
							JOINT RightShoulder
							{
								OFFSET -6.292450 5.785301 -0.669000
								CHANNELS 3 Xrotation Yrotation Zrotation
								JOINT RightShoulder_split
								{
									OFFSET -6.292450 5.785301 -0.669000
									CHANNELS 3 Xrotation Yrotation Zrotation
									JOINT RightArm
									{
										OFFSET -13.907140 -6.093903 1.965100
										CHANNELS 3 Xrotation Yrotation Zrotation
										JOINT RightForeArm
										{
											OFFSET -34.140198 0.000000 0.000000
											CHANNELS 3 Xrotation Yrotation Zrotation
											JOINT RightHand
											{
												OFFSET -40.960209 0.000000 0.000000
												CHANNELS 3 Xrotation Yrotation Zrotation
												End Site
												{
													OFFSET 0 0 0
												}
											}
										}
									}
								}
							}
						}
					}
				}
			}
		}
	}
}
MOTION
Frames: 10
Frame Time: 0.03333333
11.403258 103.747330 -22.857862 0.000000 0.000000 0.000000 8.985920 12.651788 -1.085933 -1.651067 10.918646 10.070375 42.346599 -1.390681 4.115914 -2.378930 -7.572218 -15.947590 -19.185564 0.103995 -1.003104 0.000000 0.000000 0.000000 8.193074 11.533185 -0.937684 -43.923553 -10.837619 -7.060822 43.263142 -1.919774 -0.925078 -5.474324 3.529205 -0.401474 -2.484198 0.553255 0.146378 0.000000 0.000000 0.000000 9.152956 10.368274 -0.555779 0.665990 -3.910466 -1.363248 2.697533 -2.167716 2.213956 -0.777533 0.830489 0.075261 0.000000 0.000000 0.000000 2.628014 -2.671997 2.378601 -3.188237 1.111192 2.409066 -8.873252 3.915734 7.043329 0.000000 0.000000 0.000000 1.106821 -2.323755 2.662535 0.568220 2.893878 -0.532697 2.578085 -4.560894 7.000837 -40.510579 -10.737763 -35.787309 173.979986 -64.036370 174.798570 0.000000 0.000000 0.000000 1.206065 -3.005647 2.151353 -0.642943 -18.856704 5.950086 -2.263198 7.942942 -3.217613 -34.498777 9.068579 54.650738 -170.807813 62.510957 173.242940 0.000000 0.000000 0.000000 
11.708709 106.368629 -24.134817 0.000000 0.000000 0.000000 10.743611 13.007252 -2.030743 -13.554773 9.164557 13.621087 55.044218 -1.650693 3.329685 4.127961 -7.780644 -13.340281 -9.817831 0.344598 -2.574733 0.000000 0.000000 0.000000 8.907648 10.964294 -1.424903 -41.233729 -11.836153 -6.773558 40.462379 -1.078208 -0.697340 -6.143889 3.942464 0.596218 -5.802014 0.347938 -0.260730 0.000000 0.000000 0.000000 10.138157 9.458486 -1.012550 4.970589 -3.291609 -1.121858 2.704287 -1.764681 1.238423 0.249054 0.964122 0.097246 0.000000 0.000000 0.000000 2.491848 -2.273379 1.730422 -3.948129 1.012416 0.943274 -12.982277 1.132849 8.626210 0.000000 0.000000 0.000000 1.188136 -1.925686 1.897700 0.729751 1.872016 10.961478 2.556016 -2.218818 2.756875 -56.628518 -10.005618 -34.394165 174.871721 -67.745634 174.772656 0.000000 0.000000 0.000000 1.338488 -2.421829 1.351173 -2.430204 -17.715658 -2.121265 -1.443373 5.867693 -3.680997 -52.817798 4.368021 57.396935 -171.117412 65.863473 172.310728 0.000000 0.000000 0.000000 
11.629541 108.391571 -24.680658 0.000000 0.000000 0.000000 12.108470 11.959892 -1.962721 -24.985757 8.375268 16.259146 65.685178 -0.809394 1.678537 8.436203 -5.845643 -7.618662 -1.037983 0.239059 -3.728181 0.000000 0.000000 0.000000 9.858226 9.756102 -1.413792 -39.009946 -12.175845 -7.183278 38.923793 -1.647116 -0.079602 -7.072628 3.554802 0.218890 -9.147278 -0.025150 -0.319594 0.000000 0.000000 0.000000 11.180071 8.091978 -0.876649 8.506843 -2.580498 -1.639093 3.027497 -1.399013 0.412963 1.110939 1.031847 0.094539 0.000000 0.000000 0.000000 2.905811 -1.855486 1.212520 -5.018554 0.957253 -0.224708 -17.795552 -1.220461 9.751484 0.000000 0.000000 0.000000 1.656984 -1.574404 1.213921 0.983222 1.237897 21.358319 2.460365 0.635351 -0.424777 -69.482483 -9.531943 -30.414996 173.781104 -74.779575 173.239211 0.000000 0.000000 0.000000 2.018305 -1.873734 0.608743 -3.818142 -15.960931 -10.141002 -0.387165 2.770694 -3.865895 -66.102209 -1.930223 56.819965 -172.500881 69.774842 171.743344 0.000000 0.000000 0.000000 
11.238882 110.041878 -24.859095 0.000000 0.000000 0.000000 13.022431 9.646774 -0.856908 -34.979636 8.921968 17.605175 72.454660 0.230118 -0.164260 10.718773 -3.535536 -0.875695 1.755537 -0.083570 -3.510779 0.000000 0.000000 0.000000 11.074046 7.703174 -0.827680 -37.713894 -11.821212 -8.309294 37.725542 -3.087234 0.825175 -6.987126 2.698880 -0.706054 -11.712950 -0.461737 -0.070974 0.000000 0.000000 0.000000 12.178022 6.432766 -0.202569 10.532433 -1.900408 -2.681773 3.527474 -1.121803 -0.017355 1.158077 0.668716 0.352299 0.000000 0.000000 0.000000 3.672972 -1.464732 1.037434 -6.264547 0.936768 -0.787898 -22.141317 -2.827293 10.461530 0.000000 0.000000 0.000000 2.327513 -1.279704 0.907842 1.068188 1.193880 28.431274 2.193324 2.931858 -3.293667 -77.148913 -9.737282 -25.762987 169.115142 -82.116810 168.910838 0.000000 0.000000 0.000000 3.002332 -1.476552 0.150064 -4.376439 -13.931101 -16.147259 0.439843 -0.096533 -3.111914 -71.831597 -7.049533 54.371239 -175.155284 73.001499 172.218166 0.000000 0.000000 0.000000 
10.554525 111.522385 -24.609541 0.000000 0.000000 0.000000 13.694224 6.927908 0.471755 -43.352003 10.408855 17.588886 74.945241 1.064500 -1.526991 12.032750 -2.020779 4.561084 -0.151645 -0.441319 -2.418846 0.000000 0.000000 0.000000 12.472970 5.033183 0.240746 -36.975789 -10.720132 -9.571454 35.420664 -4.172153 1.531049 -5.815950 2.405645 -0.816190 -12.556412 -0.760099 0.227385 0.000000 0.000000 0.000000 13.499388 4.782425 0.474666 10.736559 -1.209594 -3.845934 4.094269 -0.935960 0.068800 0.756084 0.177270 0.484413 0.000000 0.000000 0.000000 4.421839 -1.157870 1.257778 -7.590160 0.922703 -0.651139 -25.208504 -3.556610 10.920750 0.000000 0.000000 0.000000 2.880972 -0.982636 1.067009 0.886493 1.875366 30.069061 1.571746 3.132832 -4.914453 -77.822670 -9.547770 -22.265578 163.629913 -85.252072 164.217145 0.000000 0.000000 0.000000 4.010015 -1.202109 0.141831 -4.069174 -12.003202 -18.500561 0.824500 -1.174523 -2.146516 -69.928781 -9.902981 52.225310 -178.829707 74.445647 174.245912 0.000000 0.000000 0.000000 
9.635293 112.798401 -23.791094 0.000000 0.000000 0.000000 14.467389 4.293965 1.284448 -50.867578 12.269975 16.888712 73.011198 1.699983 -2.246861 12.952040 -1.561179 7.588865 -2.907793 -0.693108 -1.171079 0.000000 0.000000 0.000000 14.040612 2.344252 1.115081 -35.405112 -8.981320 -9.944345 31.507946 -4.523180 1.856204 -4.699683 2.816558 0.267880 -12.106072 -0.824153 0.456263 0.000000 0.000000 0.000000 15.053066 3.229259 0.602561 9.382512 -0.415821 -4.654536 4.619704 -0.768906 0.570345 0.424293 0.171879 0.711156 0.000000 0.000000 0.000000 4.829538 -0.889594 1.775141 -8.871513 0.889376 0.099632 -26.508753 -3.583760 11.245965 0.000000 0.000000 0.000000 3.337451 -0.650631 1.550486 0.637020 3.180331 25.845426 1.023169 0.700139 -5.408521 -70.848118 -8.041920 -21.085665 171.900412 -82.267996 173.380664 0.000000 0.000000 0.000000 4.879164 -0.916582 0.571925 -3.115195 -10.421363 -16.878622 0.946743 -0.659801 -0.488506 -61.460528 -10.063684 51.474570 178.127673 74.316549 176.578914 0.000000 0.000000 0.000000 
8.593309 113.072266 -22.775667 0.000000 0.000000 0.000000 15.482517 1.910741 1.125115 -57.679862 14.169484 16.104013 67.581191 2.453246 -2.166510 12.511576 -1.568906 8.581644 -3.762331 -0.794901 -0.242066 0.000000 0.000000 0.000000 15.781418 0.040557 1.115924 -31.273285 -7.706541 -8.654060 26.432163 -4.614481 1.644398 -5.499143 2.977234 1.538756 -11.207803 -0.685832 0.539996 0.000000 0.000000 0.000000 16.362275 1.659010 0.044099 7.101412 0.613194 -4.759268 5.103042 -0.550684 1.251772 0.638374 0.373130 0.734412 0.000000 0.000000 0.000000 4.639024 -0.622253 2.366159 -9.896558 0.822526 1.217352 -25.825920 -3.020249 11.527923 0.000000 0.000000 0.000000 3.695699 -0.286786 2.043956 0.748949 4.574978 16.658350 -0.346620 -2.663340 -5.521494 -57.232703 -5.079136 -22.628103 177.358976 -75.601636 179.454273 0.000000 0.000000 0.000000 5.453944 -0.518990 1.213710 -1.856555 -9.345673 -11.912363 0.330093 1.434734 1.676483 -48.867299 -8.160617 51.340025 177.625176 74.252120 177.148442 0.000000 0.000000 0.000000 
7.814690 111.742950 -21.888407 0.000000 0.000000 0.000000 16.558095 -0.071951 0.044586 -62.975061 15.517461 15.316037 60.819720 2.968159 -1.129763 9.565608 -1.630478 7.797908 -1.919823 -0.636689 0.113170 0.000000 0.000000 0.000000 17.171008 -1.293385 0.209086 -24.096540 -7.346837 -5.936573 22.301780 -4.998828 1.004823 -9.604551 2.393648 2.033242 -10.309163 -0.453437 0.534102 0.000000 0.000000 0.000000 17.207302 0.313174 -1.096539 4.745831 1.789509 -4.251084 5.518995 -0.224055 1.797381 1.259212 0.672155 0.701798 0.000000 0.000000 0.000000 4.005850 -0.326332 2.730910 -10.433879 0.726601 2.405154 -23.519924 -1.954886 11.794649 0.000000 0.000000 0.000000 3.929913 0.090145 2.234749 1.307536 5.611436 4.259749 -2.167709 -5.428212 -4.142524 -38.832351 -1.432531 -26.121930 -179.872827 -69.110135 -177.458697 0.000000 0.000000 0.000000 5.756813 0.005927 1.797288 -0.531177 -8.904530 -4.937730 -0.624297 3.009384 3.548714 -35.639606 -5.636404 50.658557 -179.504406 75.607380 174.865342 0.000000 0.000000 0.000000 
7.428686 109.013947 -21.327768 0.000000 0.000000 0.000000 17.273277 -2.177905 -1.240777 -66.215016 16.134215 14.713175 54.852778 2.384026 0.673815 4.526558 -2.174743 5.432040 -0.456188 -0.306587 0.371843 0.000000 0.000000 0.000000 17.964028 -2.060193 -1.291426 -15.525490 -7.748645 -2.698478 20.799733 -5.984675 0.389019 -15.919474 1.120498 1.324105 -10.533893 -0.275935 0.701771 0.000000 0.000000 0.000000 17.175496 -0.776738 -2.264809 2.813367 2.946105 -3.469852 5.743470 0.185209 2.000171 1.886016 0.891000 0.570405 0.000000 0.000000 0.000000 3.281068 0.032660 2.702718 -10.168810 0.663000 3.459688 -20.089084 -0.486321 11.900563 0.000000 0.000000 0.000000 4.196437 0.453976 2.055258 1.981389 6.180502 -7.918066 -3.906187 -6.044557 -2.343261 -20.652166 1.736991 -30.538496 -177.832294 -65.476065 -175.098620 0.000000 0.000000 0.000000 5.686765 0.531867 2.037181 0.724673 -9.154344 2.189768 -1.179748 3.525731 4.675078 -24.205036 -4.181449 50.231383 -172.091042 78.415694 168.149763 0.000000 0.000000 0.000000 
7.522526 105.603241 -21.393278 0.000000 0.000000 0.000000 17.332840 -4.446647 -2.207173 -66.548753 16.299919 13.925942 51.340391 0.708187 2.712193 -1.106494 -2.647391 2.396004 -1.605943 -0.060340 0.813679 0.000000 0.000000 0.000000 18.028015 -2.735695 -2.588493 -8.121915 -8.832466 -0.055067 22.139239 -7.283428 -0.094106 -22.109741 -0.095999 0.120292 -12.019011 -0.241584 1.071875 0.000000 0.000000 0.000000 16.533014 -1.729486 -2.858894 1.540469 3.972614 -2.806261 5.648275 0.610122 1.827150 1.710656 0.818752 -0.034448 0.000000 0.000000 0.000000 2.909887 0.443069 2.238875 -8.986938 0.688749 4.219932 -16.275186 1.366866 11.694564 0.000000 0.000000 0.000000 4.359040 0.784973 1.631454 2.318061 6.661810 -16.985699 -4.952612 -5.309903 0.604106 -8.207437 3.951375 -34.551571 -176.329079 -63.709191 -173.178640 0.000000 0.000000 0.000000 5.280303 0.926865 1.888069 1.899090 -9.785122 7.995337 -1.555498 3.365394 4.201202 -16.590815 -4.360188 50.966038 -159.245820 80.270009 156.071667 0.000000 0.000000 0.000000 
